<svg xmlns="http://www.w3.org/2000/svg" viewBox="0 0 256 256">
  <defs>
    <linearGradient id="bg" x1="0" y1="0" x2="1" y2="1">
      <stop offset="0" stop-color="#a78bfa"/>
      <stop offset="1" stop-color="#fb7185"/>
    </linearGradient>
  </defs>
  <rect width="256" height="256" rx="36" fill="url(#bg)"/>
  <circle cx="128" cy="132" r="76" fill="#fff" opacity="0.92"/>
  <circle cx="104" cy="128" r="8" fill="#111827"/>
  <circle cx="152" cy="128" r="8" fill="#111827"/>
  <path d="M94 160c18 18 50 18 68 0" fill="none" stroke="#111827" stroke-width="10" stroke-linecap="round"/>
  <circle cx="128" cy="94" r="14" fill="#111827" opacity="0.12"/>
  <path d="M78 112c10-18 28-28 50-28s40 10 50 28" fill="none" stroke="#111827" stroke-width="10" stroke-linecap="round" opacity="0.28"/>
  <text x="128" y="46" text-anchor="middle" font-size="22" font-family="ui-sans-serif, system-ui" fill="#ffffff" opacity="0.9">avatar_5</text>
</svg>

<svg xmlns="http://www.w3.org/2000/svg" viewBox="0 0 256 256">
  <defs>
    <linearGradient id="bg" x1="0" y1="0" x2="1" y2="1">
      <stop offset="0" stop-color="#06b6d4"/>
      <stop offset="1" stop-color="#3b82f6"/>
    </linearGradient>
  </defs>
  <rect width="256" height="256" rx="36" fill="url(#bg)"/>
  <circle cx="128" cy="132" r="68" fill="#fff" opacity="0.9"/>
  <path d="M90 110c8-10 22-10 30 0" fill="none" stroke="#111827" stroke-width="8" stroke-linecap="round"/>
  <path d="M136 110c8-10 22-10 30 0" fill="none" stroke="#111827" stroke-width="8" stroke-linecap="round"/>
  <circle cx="105" cy="126" r="7" fill="#111827"/>
  <circle cx="151" cy="126" r="7" fill="#111827"/>
  <path d="M110 164c12 8 32 8 44-2" fill="none" stroke="#111827" stroke-width="10" stroke-linecap="round"/>
  <circle cx="168" cy="148" r="6" fill="#fb7185" opacity="0.35"/>
  <text x="128" y="46" text-anchor="middle" font-size="22" font-family="ui-sans-serif, system-ui" fill="#ffffff" opacity="0.9">avatar_5</text>
</svg>
