<svg xmlns="http://www.w3.org/2000/svg" viewBox="0 0 256 256">
  <defs>
    <linearGradient id="bg" x1="0" y1="0" x2="1" y2="1">
      <stop offset="0" stop-color="#0ea5e9"/>
      <stop offset="1" stop-color="#14b8a6"/>
    </linearGradient>
  </defs>
  <rect width="256" height="256" rx="36" fill="url(#bg)"/>
  <circle cx="128" cy="132" r="78" fill="#fff" opacity="0.92"/>
  <circle cx="104" cy="130" r="8" fill="#111827"/>
  <circle cx="152" cy="130" r="8" fill="#111827"/>
  <path d="M92 160c20 20 52 20 72 0" fill="none" stroke="#111827" stroke-width="10" stroke-linecap="round"/>
  <path d="M72 112c12-22 32-34 56-34s44 12 56 34" fill="none" stroke="#111827" stroke-width="10" stroke-linecap="round" opacity="0.22"/>
  <path d="M128 64l10 22 24 2-18 16 6 24-22-12-22 12 6-24-18-16 24-2z" fill="#111827" opacity="0.10"/>
  <text x="128" y="46" text-anchor="middle" font-size="22" font-family="ui-sans-serif, system-ui" fill="#ffffff" opacity="0.9">avatar_6</text>
</svg>

<svg xmlns="http://www.w3.org/2000/svg" viewBox="0 0 256 256">
  <defs>
    <linearGradient id="bg" x1="0" y1="0" x2="1" y2="1">
      <stop offset="0" stop-color="#94a3b8"/>
      <stop offset="1" stop-color="#84cc16"/>
    </linearGradient>
  </defs>
  <rect width="256" height="256" rx="36" fill="url(#bg)"/>
  <path d="M128 64c34 0 62 28 62 62v14c0 38-28 68-62 68s-62-30-62-68v-14c0-34 28-62 62-62z" fill="#fff" opacity="0.9"/>
  <circle cx="104" cy="124" r="8" fill="#111827"/>
  <circle cx="152" cy="124" r="8" fill="#111827"/>
  <path d="M92 98c10-10 24-12 36-6" fill="none" stroke="#111827" stroke-width="8" stroke-linecap="round" opacity="0.95"/>
  <path d="M164 98c-10-10-24-12-36-6" fill="none" stroke="#111827" stroke-width="8" stroke-linecap="round" opacity="0.95"/>
  <path d="M108 162c8 10 32 10 40 0" fill="none" stroke="#111827" stroke-width="10" stroke-linecap="round"/>
  <path d="M78 92c10-18 30-30 50-30h0c20 0 40 12 50 30" fill="none" stroke="#111827" stroke-width="10" stroke-linecap="round" opacity="0.18"/>
  <text x="128" y="46" text-anchor="middle" font-size="22" font-family="ui-sans-serif, system-ui" fill="#ffffff" opacity="0.9">avatar_6</text>
</svg>
