<svg xmlns="http://www.w3.org/2000/svg" viewBox="0 0 256 256">
  <defs>
    <linearGradient id="bg" x1="0" y1="0" x2="1" y2="1">
      <stop offset="0" stop-color="#34d399"/>
      <stop offset="1" stop-color="#60a5fa"/>
    </linearGradient>
  </defs>
  <rect width="256" height="256" rx="36" fill="url(#bg)"/>
  <circle cx="128" cy="132" r="70" fill="#fff" opacity="0.92"/>
  <circle cx="104" cy="126" r="8" fill="#111827"/>
  <circle cx="152" cy="126" r="8" fill="#111827"/>
  <path d="M98 156c10 18 50 18 60 0" fill="none" stroke="#111827" stroke-width="10" stroke-linecap="round"/>
  <path d="M86 92c18-20 66-20 84 0" fill="none" stroke="#111827" stroke-width="10" stroke-linecap="round" opacity="0.4"/>
  <text x="128" y="46" text-anchor="middle" font-size="22" font-family="ui-sans-serif, system-ui" fill="#ffffff" opacity="0.9">avatar_2</text>
</svg>

<svg xmlns="http://www.w3.org/2000/svg" viewBox="0 0 256 256">
  <defs>
    <linearGradient id="bg" x1="0" y1="0" x2="1" y2="1">
      <stop offset="0" stop-color="#34d399"/>
      <stop offset="1" stop-color="#60a5fa"/>
    </linearGradient>
  </defs>
  <rect width="256" height="256" rx="36" fill="url(#bg)"/>
  <circle cx="128" cy="132" r="68" fill="#fff" opacity="0.9"/>
  <circle cx="103" cy="122" r="9" fill="#111827"/>
  <circle cx="153" cy="122" r="9" fill="#111827"/>
  <circle cx="92" cy="144" r="7" fill="#fb7185" opacity="0.45"/>
  <circle cx="164" cy="144" r="7" fill="#fb7185" opacity="0.45"/>
  <path d="M102 156c14 16 38 16 52 0" fill="none" stroke="#111827" stroke-width="10" stroke-linecap="round"/>
  <text x="128" y="46" text-anchor="middle" font-size="22" font-family="ui-sans-serif, system-ui" fill="#ffffff" opacity="0.9">avatar_2</text>
</svg>
