<svg xmlns="http://www.w3.org/2000/svg" viewBox="0 0 256 256">
  <defs>
    <linearGradient id="bg" x1="0" y1="0" x2="1" y2="1">
      <stop offset="0" stop-color="#22c55e"/>
      <stop offset="1" stop-color="#a3e635"/>
    </linearGradient>
  </defs>
  <rect width="256" height="256" rx="36" fill="url(#bg)"/>
  <circle cx="128" cy="132" r="74" fill="#fff" opacity="0.92"/>
  <circle cx="104" cy="128" r="8" fill="#111827"/>
  <circle cx="152" cy="128" r="8" fill="#111827"/>
  <path d="M100 160c14 14 42 14 56 0" fill="none" stroke="#111827" stroke-width="10" stroke-linecap="round"/>
  <path d="M86 116h84" stroke="#111827" stroke-width="10" stroke-linecap="round" opacity="0.25"/>
  <path d="M92 96c10-10 28-16 36-16s26 6 36 16" fill="none" stroke="#111827" stroke-width="10" stroke-linecap="round" opacity="0.35"/>
  <text x="128" y="46" text-anchor="middle" font-size="22" font-family="ui-sans-serif, system-ui" fill="#ffffff" opacity="0.9">avatar_4</text>
</svg>

<svg xmlns="http://www.w3.org/2000/svg" viewBox="0 0 256 256">
  <defs>
    <linearGradient id="bg" x1="0" y1="0" x2="1" y2="1">
      <stop offset="0" stop-color="#facc15"/>
      <stop offset="1" stop-color="#22c55e"/>
    </linearGradient>
  </defs>
  <rect width="256" height="256" rx="36" fill="url(#bg)"/>
  <circle cx="128" cy="132" r="68" fill="#fff" opacity="0.9"/>
  <circle cx="102" cy="124" r="16" fill="none" stroke="#111827" stroke-width="8" opacity="0.95"/>
  <circle cx="154" cy="124" r="16" fill="none" stroke="#111827" stroke-width="8" opacity="0.95"/>
  <path d="M118 124h20" fill="none" stroke="#111827" stroke-width="8" stroke-linecap="round"/>
  <circle cx="102" cy="124" r="7" fill="#111827"/>
  <circle cx="154" cy="124" r="7" fill="#111827"/>
  <path d="M110 164h36" fill="none" stroke="#111827" stroke-width="10" stroke-linecap="round"/>
  <text x="128" y="46" text-anchor="middle" font-size="22" font-family="ui-sans-serif, system-ui" fill="#ffffff" opacity="0.9">avatar_4</text>
</svg>
